<?xml version="1.0" encoding="UTF-8" standalone="no"?>
<svg width="177px" height="28px" viewBox="0 0 177 28" version="1.1" xmlns="http://www.w3.org/2000/svg" xmlns:xlink="http://www.w3.org/1999/xlink" xmlns:sketch="http://www.bohemiancoding.com/sketch/ns">
    <!-- Generator: Sketch 3.4 (15588) - http://www.bohemiancoding.com/sketch -->
    <title>ASP-logo-full</title>
    <desc>Created with Sketch.</desc>
    <defs>
        <path id="path-1" d="M0,0.313142857 L176.829301,0.313142857 L176.829301,28 L0,28 L0,0.313142857 Z"></path>
        <path id="path-3" d="M0,0.313142857 L176.829301,0.313142857 L176.829301,28 L0,28"></path>
        <path id="path-5" d="M0,0 L177,0 L177,28 L0,28 L0,0 Z"></path>
    </defs>
    <g id="Page-1" stroke="none" stroke-width="1" fill="none" fill-rule="evenodd" sketch:type="MSPage">
        <g id="ASP-logo-full" sketch:type="MSArtboardGroup">
            <g id="Page-1" sketch:type="MSLayerGroup">
                <path d="M151.802771,14.1156475 L151.227191,12.2867172 C150.799166,10.9510438 150.408876,9.63421393 150.018585,8.24367264 L149.944244,8.24367264 C149.553954,9.63421393 149.1631,10.9510438 148.736202,12.2867172 L148.14091,14.1156475 L151.802771,14.1156475 Z M152.193062,15.3415851 L147.751183,15.3415851 L146.579748,19 L145,19 L149.126492,7 L150.874071,7 L155,19 L153.363933,19 L152.193062,15.3415851 Z" id="Fill-1" fill="#FEFEFE" sketch:type="MSShapeGroup"></path>
                <path d="M157.993245,17.0365816 C158.926895,17.973221 160.218113,18.6040191 161.589392,18.6040191 C163.298375,18.6040191 164.310882,17.7820701 164.310882,16.5587043 C164.310882,15.2779931 163.357367,14.8765762 162.125744,14.3413537 L160.258444,13.5570557 C159.046084,13.0600633 157.615812,12.161654 157.615812,10.3260259 C157.615812,8.41451678 159.363922,7 161.728446,7 C163.277908,7 164.649187,7.63079802 165.562972,8.54832242 L164.688917,9.58053736 C163.894321,8.85416388 162.920942,8.39540168 161.728446,8.39540168 C160.258444,8.39540168 159.285065,9.10266007 159.285065,10.2304505 C159.285065,11.4352805 160.437228,11.8940427 161.450338,12.3145747 L163.31824,13.0791784 C164.827971,13.7099764 166,14.5701555 166,16.4248986 C166,18.4128682 164.291619,20 161.549662,20 C159.72149,20 158.132299,19.2730473 157,18.1452569 L157.993245,17.0365816 Z" id="Fill-3" fill="#FEFEFE" sketch:type="MSShapeGroup"></path>
                <g id="Group-7">
                    <mask id="mask-2" sketch:name="Clip 6" fill="white">
                        <use xlink:href="#path-1"></use>
                    </mask>
                    <g id="Clip-6"></g>
                    <path d="M172.046406,12.9595429 C174.220241,12.9595429 175.259901,12.1669714 175.259901,10.4132571 C175.259901,8.62125714 174.182435,8.03725714 172.046406,8.03725714 L170.023794,8.03725714 L170.023794,12.9595429 L172.046406,12.9595429 Z M168.435377,6.77325714 L172.254338,6.77325714 C174.99526,6.77325714 176.829416,7.69725714 176.829416,10.4132571 C176.829416,13.0161143 174.958027,14.2418286 172.254338,14.2418286 L170.023794,14.2418286 L170.023794,19.1452571 L168.435377,19.1452571 L168.435377,6.77325714 Z" id="Fill-5" fill="#FEFEFE" sketch:type="MSShapeGroup" mask="url(#mask-2)"></path>
                </g>
                <path d="M127.420269,7.93486352 L127.296794,7.93486352 L127.296794,8.35421836 C127.430196,8.35421836 127.520165,8.35049628 127.567942,8.34367246 C127.615719,8.33622829 127.650465,8.31699752 127.673423,8.28473945 C127.696381,8.25310174 127.707549,8.20471464 127.707549,8.13895782 C127.707549,8.00310174 127.611375,7.93486352 127.420269,7.93486352 L127.420269,7.93486352 Z M127.842192,9.33746898 L127.437022,8.65012407 L127.296794,8.65012407 L127.296794,9.33746898 L126.95181,9.33746898 L126.95181,7.62406948 L127.420269,7.62406948 C127.842192,7.62406948 128.052534,7.79094293 128.052534,8.12406948 C128.052534,8.33002481 127.958221,8.48325062 127.769597,8.58436725 L128.225026,9.33746898 L127.842192,9.33746898 Z M126.361737,8.49875931 C126.361737,8.81265509 126.473423,9.08064516 126.696174,9.30334988 C126.919545,9.52667494 127.18759,9.63771712 127.501551,9.63771712 C127.814271,9.63771712 128.082316,9.52667494 128.304447,9.30459057 C128.526577,9.0825062 128.637642,8.81389578 128.637642,8.49875931 C128.637642,8.18548387 128.526577,7.9174938 128.304447,7.69540943 C128.082316,7.47332506 127.814271,7.36228288 127.501551,7.36228288 C127.185729,7.36228288 126.917063,7.47332506 126.694933,7.69540943 C126.472802,7.9174938 126.361737,8.18548387 126.361737,8.49875931 L126.361737,8.49875931 Z M126,8.49875931 C126,8.08436725 126.146432,7.73138958 126.439297,7.43858561 C126.732782,7.14640199 127.086453,7 127.501551,7 C127.915408,7 128.268459,7.14640199 128.561324,7.43858561 C128.854188,7.73138958 129,8.08436725 129,8.49875931 C129,8.91315136 128.854188,9.26736973 128.561324,9.5601737 C128.268459,9.85297767 127.915408,10 127.501551,10 C127.086453,10 126.732782,9.85297767 126.439297,9.5601737 C126.146432,9.26736973 126,8.91315136 126,8.49875931 L126,8.49875931 Z" id="Fill-8" fill="#FEFEFE" sketch:type="MSShapeGroup"></path>
                <g id="Group-12">
                    <mask id="mask-4" sketch:name="Clip 11" fill="white">
                        <use xlink:href="#path-3"></use>
                    </mask>
                    <g id="Clip-11"></g>
                    <path d="M28.046366,0.313428571 C22.6767932,0.313428571 17.5833175,2.72771429 13.013968,7.05342857 C12.2950845,7.73228571 11.5888029,8.45971429 10.8997058,9.23285714 C9.90873495,7.63857143 8.95442427,5.90771429 8.04250194,4.04942857 C7.45135631,2.84371429 6.88426893,1.59857143 6.34295825,0.313428571 L0.00131747573,0.313428571 C2.03939515,5.56142857 4.42402621,10.2231429 7.08532718,14.1551429 C4.42288058,18.0877143 2.0376767,22.7505714 0.00017184466,28.0002857 L6.34009417,28.0002857 C6.88255049,26.7134286 7.45021068,25.4654286 8.04250194,24.2585714 C8.95442427,22.3997143 9.90873495,20.6688571 10.8979874,19.0745714 C12.0270068,17.2545714 13.2035699,15.6105714 14.4133563,14.154 C15.0692301,13.3648571 15.7336961,12.6311429 16.4101913,11.9534286 C20.140366,8.20028571 24.1248709,6.18028571 28.046366,6.18028571 C31.9678612,6.18028571 35.952366,8.20028571 39.6825408,11.9534286 C40.8545214,10.5042857 41.992133,8.86314286 43.0787641,7.05342857 C38.5094146,2.72771429 33.4159388,0.313428571 28.046366,0.313428571" id="Fill-10" fill="#FEFEFE" sketch:type="MSShapeGroup" mask="url(#mask-4)"></path>
                </g>
                <path d="M48.9287262,13.9985552 C51.5852426,10.0214237 53.9644429,5.30746527 55.9982846,0 L49.6697605,0 C49.1299948,1.29912695 48.5633552,2.55895647 47.9732723,3.77833275 C47.0635613,5.65767476 46.1109663,7.40814431 45.1217771,9.02165074 C43.9942157,10.8628511 42.8214832,12.5243235 41.6138718,13.9968215 C40.9591772,14.7949062 40.2959057,15.5369342 39.6206268,16.2223277 C35.8971584,20.0197313 31.919817,22.0620421 28.0053721,22.0620421 C24.0909272,22.0620421 20.1135859,20.0197313 16.3901174,16.2223277 C15.2202439,17.6878909 14.0846775,19.3476296 13,21.1778498 C17.5617063,25.5543126 22.645453,27.9959547 28.0053721,27.9959547 C33.3652913,27.9959547 38.4496097,25.5543126 43.011316,21.1778498 C43.7289071,20.4913005 44.4333471,19.7556294 45.1229206,18.973726 C46.1109663,20.5860767 47.0635613,22.3365462 47.9732723,24.2158882 C48.5644988,25.4369982 49.1311384,26.6991393 49.6726194,28 L56,28 C53.9655865,22.6913789 51.5852426,17.9756868 48.9287262,13.9985552" id="Fill-13" fill="#FEFEFE" sketch:type="MSShapeGroup"></path>
                <path d="M64.0999496,10.3617647 L62.2084663,16.0082353 L65.8335293,16.0082353 L64.0999496,10.3617647 Z M67.1499524,20 L66.3083599,17.2952941 L61.7666723,17.2952941 L60.8668458,20 L59,20 L63.9582843,7 L64.4000784,7 L69,20 L67.1499524,20 Z" id="Fill-15" fill="#FEFEFE" sketch:type="MSShapeGroup"></path>
                <path d="M73.7544424,8.6745942 L73.7544424,13.4426911 C74.497404,13.5014695 74.8887751,13.5308586 74.9297258,13.5308586 C77.1053748,13.5308586 78.1929068,12.6697563 78.1929068,10.9487272 C78.1929068,9.37405616 77.0316636,8.58642673 74.7103473,8.58642673 C74.4763437,8.58642673 74.1580987,8.61581589 73.7544424,8.6745942 M73.7544424,15.0291179 L73.7544424,20 L72,20 L72,7.08816747 C73.3273857,7.02938916 74.1288483,7 74.4038026,7 C78.1344059,7 80,8.25432925 80,10.7635755 C80,13.6660487 78.3508592,15.1172853 75.0525777,15.1172853 C74.8536746,15.1172853 74.4213528,15.0878962 73.7544424,15.0291179" id="Fill-17" fill="#FEFEFE" sketch:type="MSShapeGroup"></path>
                <path d="M84.7544989,8.6746879 L84.7544989,13.4429618 C85.497147,13.501176 85.8886613,13.5305772 85.9296269,13.5305772 C88.1049012,13.5305772 89.192831,12.6703003 89.192831,10.9485707 C89.192831,9.37384657 88.0317484,8.58648453 85.7101683,8.58648453 C85.4766642,8.58648453 85.1577176,8.61588565 84.7544989,8.6746879 M84.7544989,15.0288583 L84.7544989,20 L83,20 L83,7.08820337 C84.3278713,7.02940112 85.1284565,7 85.4035113,7 C89.1343087,7 91,8.25483988 91,10.7633436 C91,13.6658223 89.3508413,15.1170617 86.0525238,15.1170617 C85.8541331,15.1170617 85.421068,15.0876606 84.7544989,15.0288583" id="Fill-19" fill="#FEFEFE" sketch:type="MSShapeGroup"></path>
                <mask id="mask-6" sketch:name="Clip 22" fill="white">
                    <use xlink:href="#path-5"></use>
                </mask>
                <g id="Clip-22"></g>
                <path d="M93,7 L95,7 L95,20 L93,20 L93,7 Z" id="Fill-21" fill="#FEFEFE" sketch:type="MSShapeGroup" mask="url(#mask-6)"></path>
                <path d="M100.744249,8.71281402 L100.744249,12.8938189 C101.162962,12.9525574 101.570012,12.9819266 101.965399,12.9819266 C103.011599,12.9819266 103.773213,12.811585 104.24966,12.4720766 C104.72669,12.1325682 104.965204,11.5263871 104.965204,10.6541207 C104.965204,9.93398699 104.709195,9.41532622 104.197758,9.09931321 C103.685738,8.7833002 102.878054,8.62470631 101.773537,8.62470631 C101.598587,8.62470631 101.255686,8.65407555 100.744249,8.71281402 L100.744249,8.71281402 Z M106.002657,20 L102.592885,14.4750587 C102.203331,14.4750587 101.587507,14.4456895 100.744249,14.386951 L100.744249,20 L99,20 L99,7.13157419 C99.0641483,7.13157419 99.5161019,7.10984095 100.355861,7.0657871 C101.196203,7.02232062 101.807944,7 102.191667,7 C105.261453,7 106.796345,8.22998373 106.796345,10.6893638 C106.796345,11.4970179 106.549083,12.2247876 106.055142,12.8720857 C105.560617,13.5187963 104.973952,13.9217423 104.293397,14.0797488 L108,20 L106.002657,20 Z" id="Fill-23" fill="#FEFEFE" sketch:type="MSShapeGroup" mask="url(#mask-6)"></path>
                <path d="M111,7 L113,7 L113,20 L111,20 L111,7 Z" id="Fill-24" fill="#FEFEFE" sketch:type="MSShapeGroup" mask="url(#mask-6)"></path>
                <path d="M117.721196,13.3969652 C117.721196,14.8376914 117.993378,16.041232 118.536618,17.007 C119.08042,17.973355 119.847017,18.4565325 120.835849,18.4565325 C121.956002,18.4565325 122.810146,18.0132773 123.397722,17.127354 C123.984735,16.2408436 124.278804,14.9973807 124.278804,13.3969652 C124.278804,10.1614957 123.131152,8.54346746 120.835849,8.54346746 C119.819518,8.54346746 119.046187,8.97791627 118.515854,9.84681389 C117.986082,10.7157115 117.721196,11.899291 117.721196,13.3969652 M116,13.3969652 C116,11.5793253 116.43549,10.0581674 117.307032,8.83525268 C118.179135,7.61175089 119.354846,7 120.835849,7 C122.50261,7 123.779898,7.56302217 124.667714,8.68906652 C125.556092,9.81569796 126,11.3844104 126,13.3969652 C126,15.460597 125.554408,17.0774511 124.664347,18.2463532 C123.773163,19.4152554 122.496998,20 120.835849,20 C119.322296,20 118.137606,19.3823782 117.2829,18.1477216 C116.427633,16.912478 116,15.3290882 116,13.3969652" id="Fill-25" fill="#FEFEFE" sketch:type="MSShapeGroup" mask="url(#mask-6)"></path>
                <path d="M136.5,27 C136.224,27 136,26.8108069 136,26.5776939 L136,0.422306104 C136,0.189193135 136.224,0 136.5,0 C136.776,0 137,0.189193135 137,0.422306104 L137,26.5776939 C137,26.8108069 136.776,27 136.5,27" id="Fill-26" fill="#FEFEFE" sketch:type="MSShapeGroup" mask="url(#mask-6)"></path>
            </g>
        </g>
    </g>
</svg>